ffmpeg started on 2026-01-16 at 16:40:28
Report written to "D:\Convert\FFMetrics\reports\psnr_report-6.txt"
Log level: 32
Command line:
ffmpeg -hide_banner -nostdin -r 24000/1001 -i "F:\\Convert\\files\\[DC] Make Heroine ga Oosugiru - 07_Telegram_HEVC(HB-5).mkv" -r 24000/1001 -i "F:\\Convert\\files\\[DC] Make Heroine ga Oosugiru - 07_Telegram.mp4" -lavfi "[0:v]settb=AVTB,setpts=PTS-STARTPTS,format=pix_fmts=yuv420p10le,fps=24000/1001,scale=1920:1080:flags=lanczos:param0=3:out_range=limited:out_color_matrix=bt709:out_chroma_loc=left,setsar=1/1,setdar=(1920/1080)*(1/1),colorspace=format=yuv420p10:range=tv:primaries=bt709:trc=bt709:space=bt709:fast=0[main];[1:v]settb=AVTB,setpts=PTS-STARTPTS,format=pix_fmts=yuv420p,fps=24000/1001,scale=1920:1080:flags=lanczos:param0=3:out_range=limited:out_color_matrix=bt709:out_chroma_loc=left,setsar=1.000,setdar=1.778,colorspace=format=yuv420p:range=tv:primaries=bt709:trc=bt709:space=bt709:fast=0[ref];[main][ref]psnr=eof_action=endall:stats_file='D\\:/Convert/FFMetrics/logs/psnr_logfile-6.txt'" -f null -
Input #0, matroska,webm, from 'F:\Convert\files\[DC] Make Heroine ga Oosugiru - 07_Telegram_HEVC(HB-5).mkv':
  Metadata:
    creation_time   : 2026-01-16T07:48:50.000000Z
    ENCODER         : Lavf61.7.100
  Duration: 00:24:06.81, start: -0.021000, bitrate: 1000 kb/s
  Stream #0:0: Video: hevc (Main 10), yuv420p10le(tv, bt709), 1920x1080 [SAR 1:1 DAR 16:9], 23.98 fps, 23.98 tbr, 1k tbn (default)
      Metadata:
        BPS             : 803316
        DURATION        : 00:24:06.569708333
        NUMBER_OF_FRAMES: 34683
        NUMBER_OF_BYTES : 145256674
        _STATISTICS_WRITING_APP: mkvpropedit v94.0 ('Initiate') 64-bit
        _STATISTICS_WRITING_DATE_UTC: 2026-01-16 13:40:28
        _STATISTICS_TAGS: BPS DURATION NUMBER_OF_FRAMES NUMBER_OF_BYTES
  Stream #0:1: Audio: aac (LC), 48000 Hz, stereo, fltp (default)
      Metadata:
        title           : Stereo
        BPS             : 193190
        DURATION        : 00:24:06.784000000
        NUMBER_OF_FRAMES: 67819
        NUMBER_OF_BYTES : 34938166
        _STATISTICS_WRITING_APP: mkvpropedit v94.0 ('Initiate') 64-bit
        _STATISTICS_WRITING_DATE_UTC: 2026-01-16 13:40:28
        _STATISTICS_TAGS: BPS DURATION NUMBER_OF_FRAMES NUMBER_OF_BYTES
Input #1, mov,mp4,m4a,3gp,3g2,mj2, from 'F:\Convert\files\[DC] Make Heroine ga Oosugiru - 07_Telegram.mp4':
  Metadata:
    major_brand     : isom
    minor_version   : 512
    compatible_brands: isomiso2avc1mp41
    encoder         : Lavf60.16.100
  Duration: 00:24:06.74, start: 0.000000, bitrate: 3764 kb/s
  Stream #1:0[0x1](und): Video: h264 (High) (avc1 / 0x31637661), yuv420p(tv, bt709, progressive), 1920x1080 [SAR 1:1 DAR 16:9], 3616 kb/s, 23.98 fps, 23.98 tbr, 24k tbn (default)
      Metadata:
        handler_name    : VideoHandler
        vendor_id       : [0][0][0][0]
        encoder         : Lavc60.31.102 h264_qsv
  Stream #1:1[0x2](und): Audio: aac (HE-AACv2) (mp4a / 0x6134706D), 48000 Hz, stereo, fltp, 144 kb/s (default)
      Metadata:
        handler_name    : SoundHandler
        vendor_id       : [0][0][0][0]
Stream mapping:
  Stream #0:0 (hevc) -> settb:default
  Stream #1:0 (h264) -> settb:default
  psnr:default -> Stream #0:0 (wrapped_avframe)
  Stream #0:1 -> #0:1 (aac (native) -> pcm_s16le (native))
Output #0, null, to 'pipe:':
  Metadata:
    encoder         : Lavf61.7.100
  Stream #0:0: Video: wrapped_avframe, yuv420p10le(tv, bt709, progressive), 1920x1080 [SAR 1:1 DAR 16:9], q=2-31, 200 kb/s, 23.98 fps, 23.98 tbn
      Metadata:
        encoder         : Lavc61.19.100 wrapped_avframe
  Stream #0:1: Audio: pcm_s16le, 48000 Hz, stereo, s16, 1536 kb/s (default)
      Metadata:
        title           : Stereo
        BPS             : 193190
        DURATION        : 00:24:06.784000000
        NUMBER_OF_FRAMES: 67819
        NUMBER_OF_BYTES : 34938166
        _STATISTICS_WRITING_APP: mkvpropedit v94.0 ('Initiate') 64-bit
        _STATISTICS_WRITING_DATE_UTC: 2026-01-16 13:40:28
        _STATISTICS_TAGS: BPS DURATION NUMBER_OF_FRAMES NUMBER_OF_BYTES
        encoder         : Lavc61.19.100 pcm_s16le
frame=  149 fps=0.0 q=-0.0 size=N/A time=00:00:06.21 bitrate=N/A speed=  12x    frame=  350 fps=341 q=-0.0 size=N/A time=00:00:14.59 bitrate=N/A speed=14.2x    frame=  556 fps=358 q=-0.0 size=N/A time=00:00:23.18 bitrate=N/A speed=14.9x    frame=  766 fps=371 q=-0.0 size=N/A time=00:00:31.94 bitrate=N/A speed=15.5x    frame=  915 fps=355 q=-0.0 size=N/A time=00:00:38.16 bitrate=N/A speed=14.8x    frame= 1037 fps=334 q=-0.0 size=N/A time=00:00:43.25 bitrate=N/A speed=13.9x    frame= 1177 fps=324 q=-0.0 size=N/A time=00:00:49.09 bitrate=N/A speed=13.5x    frame= 1316 fps=318 q=-0.0 size=N/A time=00:00:54.88 bitrate=N/A speed=13.2x    frame= 1455 fps=313 q=-0.0 size=N/A time=00:01:00.68 bitrate=N/A speed=  13x    frame= 1586 fps=306 q=-0.0 size=N/A time=00:01:06.14 bitrate=N/A speed=12.8x    frame= 1720 fps=301 q=-0.0 size=N/A time=00:01:11.73 bitrate=N/A speed=12.6x    frame= 1860 fps=299 q=-0.0 size=N/A time=00:01:17.57 bitrate=N/A speed=12.5x    frame= 1995 fps=296 q=-0.0 size=N/A time=00:01:23.20 bitrate=N/A speed=12.4x    frame= 2090 fps=288 q=-0.0 size=N/A time=00:01:27.17 bitrate=N/A speed=  12x    frame= 2212 fps=285 q=-0.0 size=N/A time=00:01:32.25 bitrate=N/A speed=11.9x    frame= 2344 fps=283 q=-0.0 size=N/A time=00:01:37.76 bitrate=N/A speed=11.8x    frame= 2462 fps=280 q=-0.0 size=N/A time=00:01:42.68 bitrate=N/A speed=11.7x    frame= 2565 fps=275 q=-0.0 size=N/A time=00:01:46.98 bitrate=N/A speed=11.5x    frame= 2722 fps=277 q=-0.0 size=N/A time=00:01:53.53 bitrate=N/A speed=11.5x    frame= 2862 fps=277 q=-0.0 size=N/A time=00:01:59.36 bitrate=N/A speed=11.5x    frame= 3026 fps=279 q=-0.0 size=N/A time=00:02:06.20 bitrate=N/A speed=11.6x    frame= 3203 fps=281 q=-0.0 size=N/A time=00:02:13.59 bitrate=N/A speed=11.7x    frame= 3372 fps=283 q=-0.0 size=N/A time=00:02:20.64 bitrate=N/A speed=11.8x    frame= 3538 fps=285 q=-0.0 size=N/A time=00:02:27.56 bitrate=N/A speed=11.9x    frame= 3749 fps=290 q=-0.0 size=N/A time=00:02:36.36 bitrate=N/A speed=12.1x    frame= 3952 fps=294 q=-0.0 size=N/A time=00:02:44.83 bitrate=N/A speed=12.3x    frame= 4165 fps=298 q=-0.0 size=N/A time=00:02:53.71 bitrate=N/A speed=12.4x    frame= 4371 fps=302 q=-0.0 size=N/A time=00:03:02.30 bitrate=N/A speed=12.6x    frame= 4574 fps=305 q=-0.0 size=N/A time=00:03:10.77 bitrate=N/A speed=12.7x    frame= 4789 fps=309 q=-0.0 size=N/A time=00:03:19.74 bitrate=N/A speed=12.9x    frame= 4995 fps=312 q=-0.0 size=N/A time=00:03:28.33 bitrate=N/A speed=  13x    frame= 5202 fps=315 q=-0.0 size=N/A time=00:03:36.96 bitrate=N/A speed=13.1x    frame= 5412 fps=318 q=-0.0 size=N/A time=00:03:45.72 bitrate=N/A speed=13.2x    frame= 5626 fps=320 q=-0.0 size=N/A time=00:03:54.65 bitrate=N/A speed=13.4x    frame= 5837 fps=323 q=-0.0 size=N/A time=00:04:03.45 bitrate=N/A speed=13.5x    frame= 6042 fps=325 q=-0.0 size=N/A time=00:04:12.00 bitrate=N/A speed=13.6x    frame= 6247 fps=327 q=-0.0 size=N/A time=00:04:20.55 bitrate=N/A speed=13.6x    frame= 6450 fps=328 q=-0.0 size=N/A time=00:04:29.01 bitrate=N/A speed=13.7x    frame= 6647 fps=330 q=-0.0 size=N/A time=00:04:37.23 bitrate=N/A speed=13.8x    frame= 6854 fps=332 q=-0.0 size=N/A time=00:04:45.86 bitrate=N/A speed=13.8x    frame= 7053 fps=333 q=-0.0 size=N/A time=00:04:54.16 bitrate=N/A speed=13.9x    frame= 7245 fps=334 q=-0.0 size=N/A time=00:05:02.17 bitrate=N/A speed=13.9x    frame= 7433 fps=335 q=-0.0 size=N/A time=00:05:10.01 bitrate=N/A speed=  14x    frame= 7614 fps=335 q=-0.0 size=N/A time=00:05:17.56 bitrate=N/A speed=  14x    frame= 7790 fps=335 q=-0.0 size=N/A time=00:05:24.90 bitrate=N/A speed=  14x    frame= 7958 fps=335 q=-0.0 size=N/A time=00:05:31.91 bitrate=N/A speed=  14x    frame= 8124 fps=335 q=-0.0 size=N/A time=00:05:38.83 bitrate=N/A speed=  14x    frame= 8294 fps=335 q=-0.0 size=N/A time=00:05:45.92 bitrate=N/A speed=  14x    frame= 8455 fps=334 q=-0.0 size=N/A time=00:05:52.64 bitrate=N/A speed=13.9x    frame= 8614 fps=334 q=-0.0 size=N/A time=00:05:59.27 bitrate=N/A speed=13.9x    frame= 8779 fps=333 q=-0.0 size=N/A time=00:06:06.15 bitrate=N/A speed=13.9x    frame= 8947 fps=333 q=-0.0 size=N/A time=00:06:13.16 bitrate=N/A speed=13.9x    frame= 9113 fps=333 q=-0.0 size=N/A time=00:06:20.08 bitrate=N/A speed=13.9x    frame= 9283 fps=333 q=-0.0 size=N/A time=00:06:27.17 bitrate=N/A speed=13.9x    frame= 9444 fps=333 q=-0.0 size=N/A time=00:06:33.89 bitrate=N/A speed=13.9x    frame= 9606 fps=332 q=-0.0 size=N/A time=00:06:40.65 bitrate=N/A speed=13.9x    frame= 9774 fps=332 q=-0.0 size=N/A time=00:06:47.65 bitrate=N/A speed=13.9x    frame= 9945 fps=332 q=-0.0 size=N/A time=00:06:54.78 bitrate=N/A speed=13.9x    frame=10118 fps=332 q=-0.0 size=N/A time=00:07:02.00 bitrate=N/A speed=13.9x    frame=10256 fps=331 q=-0.0 size=N/A time=00:07:07.76 bitrate=N/A speed=13.8x    frame=10407 fps=331 q=-0.0 size=N/A time=00:07:14.05 bitrate=N/A speed=13.8x    frame=10575 fps=330 q=-0.0 size=N/A time=00:07:21.06 bitrate=N/A speed=13.8x    frame=10740 fps=330 q=-0.0 size=N/A time=00:07:27.94 bitrate=N/A speed=13.8x    frame=10905 fps=330 q=-0.0 size=N/A time=00:07:34.82 bitrate=N/A speed=13.8x    frame=11066 fps=330 q=-0.0 size=N/A time=00:07:41.54 bitrate=N/A speed=13.8x    frame=11219 fps=329 q=-0.0 size=N/A time=00:07:47.92 bitrate=N/A speed=13.7x    frame=11378 fps=329 q=-0.0 size=N/A time=00:07:54.55 bitrate=N/A speed=13.7x    frame=11541 fps=329 q=-0.0 size=N/A time=00:08:01.35 bitrate=N/A speed=13.7x    frame=11712 fps=329 q=-0.0 size=N/A time=00:08:08.48 bitrate=N/A speed=13.7x    frame=11864 fps=328 q=-0.0 size=N/A time=00:08:14.82 bitrate=N/A speed=13.7x    frame=12035 fps=328 q=-0.0 size=N/A time=00:08:21.95 bitrate=N/A speed=13.7x    frame=12210 fps=328 q=-0.0 size=N/A time=00:08:29.25 bitrate=N/A speed=13.7x    frame=12388 fps=329 q=-0.0 size=N/A time=00:08:36.68 bitrate=N/A speed=13.7x    frame=12577 fps=329 q=-0.0 size=N/A time=00:08:44.56 bitrate=N/A speed=13.7x    frame=12774 fps=330 q=-0.0 size=N/A time=00:08:52.78 bitrate=N/A speed=13.8x    frame=12965 fps=330 q=-0.0 size=N/A time=00:09:00.74 bitrate=N/A speed=13.8x    frame=13150 fps=331 q=-0.0 size=N/A time=00:09:08.46 bitrate=N/A speed=13.8x    frame=13341 fps=331 q=-0.0 size=N/A time=00:09:16.43 bitrate=N/A speed=13.8x    frame=13528 fps=332 q=-0.0 size=N/A time=00:09:24.23 bitrate=N/A speed=13.8x    frame=13724 fps=332 q=-0.0 size=N/A time=00:09:32.40 bitrate=N/A speed=13.9x    frame=13915 fps=333 q=-0.0 size=N/A time=00:09:40.37 bitrate=N/A speed=13.9x    frame=14091 fps=333 q=-0.0 size=N/A time=00:09:47.71 bitrate=N/A speed=13.9x    frame=14259 fps=333 q=-0.0 size=N/A time=00:09:54.71 bitrate=N/A speed=13.9x    frame=14448 fps=333 q=-0.0 size=N/A time=00:10:02.60 bitrate=N/A speed=13.9x    frame=14627 fps=333 q=-0.0 size=N/A time=00:10:10.06 bitrate=N/A speed=13.9x    frame=14814 fps=334 q=-0.0 size=N/A time=00:10:17.86 bitrate=N/A speed=13.9x    frame=14997 fps=334 q=-0.0 size=N/A time=00:10:25.49 bitrate=N/A speed=13.9x    frame=15148 fps=334 q=-0.0 size=N/A time=00:10:31.79 bitrate=N/A speed=13.9x    frame=15328 fps=334 q=-0.0 size=N/A time=00:10:39.30 bitrate=N/A speed=13.9x    frame=15503 fps=334 q=-0.0 size=N/A time=00:10:46.60 bitrate=N/A speed=13.9x    frame=15685 fps=334 q=-0.0 size=N/A time=00:10:54.19 bitrate=N/A speed=13.9x    frame=15870 fps=334 q=-0.0 size=N/A time=00:11:01.91 bitrate=N/A speed=13.9x    frame=16052 fps=334 q=-0.0 size=N/A time=00:11:09.50 bitrate=N/A speed=13.9x    frame=16232 fps=335 q=-0.0 size=N/A time=00:11:17.00 bitrate=N/A speed=  14x    frame=16421 fps=335 q=-0.0 size=N/A time=00:11:24.89 bitrate=N/A speed=  14x    frame=16599 fps=335 q=-0.0 size=N/A time=00:11:32.31 bitrate=N/A speed=  14x    frame=16785 fps=335 q=-0.0 size=N/A time=00:11:40.07 bitrate=N/A speed=  14x    frame=16966 fps=335 q=-0.0 size=N/A time=00:11:47.62 bitrate=N/A speed=  14x    frame=17163 fps=336 q=-0.0 size=N/A time=00:11:55.84 bitrate=N/A speed=  14x    frame=17351 fps=336 q=-0.0 size=N/A time=00:12:03.68 bitrate=N/A speed=  14x    frame=17536 fps=336 q=-0.0 size=N/A time=00:12:11.39 bitrate=N/A speed=  14x    frame=17725 fps=337 q=-0.0 size=N/A time=00:12:19.28 bitrate=N/A speed=  14x    frame=17918 fps=337 q=-0.0 size=N/A time=00:12:27.32 bitrate=N/A speed=14.1x    frame=18112 fps=337 q=-0.0 size=N/A time=00:12:35.42 bitrate=N/A speed=14.1x    frame=18290 fps=338 q=-0.0 size=N/A time=00:12:42.84 bitrate=N/A speed=14.1x    frame=18483 fps=338 q=-0.0 size=N/A time=00:12:50.89 bitrate=N/A speed=14.1x    frame=18689 fps=338 q=-0.0 size=N/A time=00:12:59.48 bitrate=N/A speed=14.1x    frame=18876 fps=339 q=-0.0 size=N/A time=00:13:07.28 bitrate=N/A speed=14.1x    frame=19067 fps=339 q=-0.0 size=N/A time=00:13:15.25 bitrate=N/A speed=14.1x    frame=19274 fps=339 q=-0.0 size=N/A time=00:13:23.88 bitrate=N/A speed=14.2x    frame=19483 fps=340 q=-0.0 size=N/A time=00:13:32.60 bitrate=N/A speed=14.2x    frame=19685 fps=340 q=-0.0 size=N/A time=00:13:41.02 bitrate=N/A speed=14.2x    frame=19883 fps=341 q=-0.0 size=N/A time=00:13:49.28 bitrate=N/A speed=14.2x    frame=20096 fps=341 q=-0.0 size=N/A time=00:13:58.17 bitrate=N/A speed=14.2x    frame=20299 fps=342 q=-0.0 size=N/A time=00:14:06.63 bitrate=N/A speed=14.3x    frame=20481 fps=342 q=-0.0 size=N/A time=00:14:14.22 bitrate=N/A speed=14.3x    frame=20651 fps=342 q=-0.0 size=N/A time=00:14:21.31 bitrate=N/A speed=14.3x    frame=20855 fps=342 q=-0.0 size=N/A time=00:14:29.82 bitrate=N/A speed=14.3x    frame=21049 fps=343 q=-0.0 size=N/A time=00:14:37.91 bitrate=N/A speed=14.3x    frame=21249 fps=343 q=-0.0 size=N/A time=00:14:46.26 bitrate=N/A speed=14.3x    frame=21447 fps=343 q=-0.0 size=N/A time=00:14:54.51 bitrate=N/A speed=14.3x    frame=21647 fps=344 q=-0.0 size=N/A time=00:15:02.86 bitrate=N/A speed=14.3x    frame=21845 fps=344 q=-0.0 size=N/A time=00:15:11.11 bitrate=N/A speed=14.4x    frame=22051 fps=345 q=-0.0 size=N/A time=00:15:19.71 bitrate=N/A speed=14.4x    frame=22248 fps=345 q=-0.0 size=N/A time=00:15:27.92 bitrate=N/A speed=14.4x    frame=22459 fps=345 q=-0.0 size=N/A time=00:15:36.72 bitrate=N/A speed=14.4x    frame=22660 fps=346 q=-0.0 size=N/A time=00:15:45.11 bitrate=N/A speed=14.4x    frame=22856 fps=346 q=-0.0 size=N/A time=00:15:53.28 bitrate=N/A speed=14.4x    frame=23055 fps=346 q=-0.0 size=N/A time=00:16:01.58 bitrate=N/A speed=14.4x    frame=23259 fps=347 q=-0.0 size=N/A time=00:16:10.09 bitrate=N/A speed=14.5x    frame=23471 fps=347 q=-0.0 size=N/A time=00:16:18.93 bitrate=N/A speed=14.5x    frame=23674 fps=347 q=-0.0 size=N/A time=00:16:27.40 bitrate=N/A speed=14.5x    frame=23884 fps=348 q=-0.0 size=N/A time=00:16:36.16 bitrate=N/A speed=14.5x    frame=24077 fps=348 q=-0.0 size=N/A time=00:16:44.21 bitrate=N/A speed=14.5x    frame=24269 fps=348 q=-0.0 size=N/A time=00:16:52.21 bitrate=N/A speed=14.5x    frame=24472 fps=349 q=-0.0 size=N/A time=00:17:00.68 bitrate=N/A speed=14.5x    frame=24688 fps=349 q=-0.0 size=N/A time=00:17:09.69 bitrate=N/A speed=14.6x    frame=24887 fps=349 q=-0.0 size=N/A time=00:17:17.99 bitrate=N/A speed=14.6x    frame=25087 fps=350 q=-0.0 size=N/A time=00:17:26.33 bitrate=N/A speed=14.6x    frame=25301 fps=350 q=-0.0 size=N/A time=00:17:35.26 bitrate=N/A speed=14.6x    frame=25502 fps=350 q=-0.0 size=N/A time=00:17:43.64 bitrate=N/A speed=14.6x    frame=25700 fps=351 q=-0.0 size=N/A time=00:17:51.90 bitrate=N/A speed=14.6x    frame=25903 fps=351 q=-0.0 size=N/A time=00:18:00.37 bitrate=N/A speed=14.6x    frame=26107 fps=351 q=-0.0 size=N/A time=00:18:08.87 bitrate=N/A speed=14.6x    frame=26308 fps=351 q=-0.0 size=N/A time=00:18:17.26 bitrate=N/A speed=14.7x    frame=26518 fps=352 q=-0.0 size=N/A time=00:18:26.02 bitrate=N/A speed=14.7x    frame=26729 fps=352 q=-0.0 size=N/A time=00:18:34.82 bitrate=N/A speed=14.7x    frame=26918 fps=352 q=-0.0 size=N/A time=00:18:42.70 bitrate=N/A speed=14.7x    frame=27103 fps=352 q=-0.0 size=N/A time=00:18:50.42 bitrate=N/A speed=14.7x    frame=27300 fps=353 q=-0.0 size=N/A time=00:18:58.63 bitrate=N/A speed=14.7x    frame=27493 fps=353 q=-0.0 size=N/A time=00:19:06.68 bitrate=N/A speed=14.7x    frame=27686 fps=353 q=-0.0 size=N/A time=00:19:14.73 bitrate=N/A speed=14.7x    frame=27889 fps=353 q=-0.0 size=N/A time=00:19:23.20 bitrate=N/A speed=14.7x    frame=28089 fps=353 q=-0.0 size=N/A time=00:19:31.54 bitrate=N/A speed=14.7x    frame=28287 fps=354 q=-0.0 size=N/A time=00:19:39.80 bitrate=N/A speed=14.7x    frame=28489 fps=354 q=-0.0 size=N/A time=00:19:48.22 bitrate=N/A speed=14.8x    frame=28695 fps=354 q=-0.0 size=N/A time=00:19:56.82 bitrate=N/A speed=14.8x    frame=28863 fps=354 q=-0.0 size=N/A time=00:20:03.82 bitrate=N/A speed=14.8x    frame=29035 fps=354 q=-0.0 size=N/A time=00:20:11.00 bitrate=N/A speed=14.8x    frame=29217 fps=354 q=-0.0 size=N/A time=00:20:18.59 bitrate=N/A speed=14.8x    frame=29407 fps=354 q=-0.0 size=N/A time=00:20:26.51 bitrate=N/A speed=14.8x    frame=29580 fps=354 q=-0.0 size=N/A time=00:20:33.73 bitrate=N/A speed=14.8x    frame=29761 fps=354 q=-0.0 size=N/A time=00:20:41.28 bitrate=N/A speed=14.8x    frame=29934 fps=354 q=-0.0 size=N/A time=00:20:48.49 bitrate=N/A speed=14.8x    frame=30110 fps=354 q=-0.0 size=N/A time=00:20:55.83 bitrate=N/A speed=14.7x    frame=30307 fps=354 q=-0.0 size=N/A time=00:21:04.05 bitrate=N/A speed=14.8x    frame=30506 fps=354 q=-0.0 size=N/A time=00:21:12.35 bitrate=N/A speed=14.8x    frame=30707 fps=354 q=-0.0 size=N/A time=00:21:20.73 bitrate=N/A speed=14.8x    frame=30913 fps=354 q=-0.0 size=N/A time=00:21:29.32 bitrate=N/A speed=14.8x    frame=31113 fps=355 q=-0.0 size=N/A time=00:21:37.67 bitrate=N/A speed=14.8x    frame=31315 fps=355 q=-0.0 size=N/A time=00:21:46.09 bitrate=N/A speed=14.8x    frame=31503 fps=355 q=-0.0 size=N/A time=00:21:53.93 bitrate=N/A speed=14.8x    frame=31699 fps=355 q=-0.0 size=N/A time=00:22:02.11 bitrate=N/A speed=14.8x    frame=31882 fps=355 q=-0.0 size=N/A time=00:22:09.74 bitrate=N/A speed=14.8x    frame=32067 fps=355 q=-0.0 size=N/A time=00:22:17.46 bitrate=N/A speed=14.8x    frame=32270 fps=355 q=-0.0 size=N/A time=00:22:25.92 bitrate=N/A speed=14.8x    frame=32475 fps=355 q=-0.0 size=N/A time=00:22:34.47 bitrate=N/A speed=14.8x    frame=32654 fps=355 q=-0.0 size=N/A time=00:22:41.94 bitrate=N/A speed=14.8x    frame=32809 fps=355 q=-0.0 size=N/A time=00:22:48.40 bitrate=N/A speed=14.8x    frame=32992 fps=355 q=-0.0 size=N/A time=00:22:56.04 bitrate=N/A speed=14.8x    frame=33178 fps=355 q=-0.0 size=N/A time=00:23:03.79 bitrate=N/A speed=14.8x    frame=33363 fps=355 q=-0.0 size=N/A time=00:23:11.51 bitrate=N/A speed=14.8x    frame=33527 fps=355 q=-0.0 size=N/A time=00:23:18.35 bitrate=N/A speed=14.8x    frame=33678 fps=355 q=-0.0 size=N/A time=00:23:24.65 bitrate=N/A speed=14.8x    frame=33815 fps=354 q=-0.0 size=N/A time=00:23:30.36 bitrate=N/A speed=14.8x    frame=33948 fps=354 q=-0.0 size=N/A time=00:23:35.91 bitrate=N/A speed=14.8x    frame=34114 fps=354 q=-0.0 size=N/A time=00:23:42.83 bitrate=N/A speed=14.7x    frame=34270 fps=353 q=-0.0 size=N/A time=00:23:49.34 bitrate=N/A speed=14.7x    frame=34402 fps=353 q=-0.0 size=N/A time=00:23:54.85 bitrate=N/A speed=14.7x    frame=34569 fps=353 q=-0.0 size=N/A time=00:24:01.81 bitrate=N/A speed=14.7x    [Parsed_psnr_16 @ 000001ce45504980] PSNR y:49.234319 u:50.427761 v:50.468340 average:49.602438 min:37.997583 max:inf
[out#0/null @ 000001ce38061d00] video:14903KiB audio:271276KiB subtitle:0KiB other streams:0KiB global headers:0KiB muxing overhead: unknown
frame=34683 fps=353 q=-0.0 Lsize=N/A time=00:24:06.57 bitrate=N/A speed=14.7x    
